<?xml version="1.0" encoding="UTF-8" standalone="no"?>
<!DOCTYPE svg PUBLIC "-//W3C//DTD SVG 1.1//EN"
 "http://www.w3.org/Graphics/SVG/1.1/DTD/svg11.dtd">
<!-- Generated by graphviz version 14.0.2 (20251019.1705)
 -->
<!-- Title: deps Pages: 1 -->
<svg width="221pt" height="181pt"
 viewBox="0.00 0.00 221.00 181.00" xmlns="http://www.w3.org/2000/svg" xmlns:xlink="http://www.w3.org/1999/xlink">
<g id="graph0" class="graph" transform="scale(1 1) rotate(0) translate(4 177)">
<title>deps</title>
<polygon fill="white" stroke="none" points="-4,4 -4,-177 216.75,-177 216.75,4 -4,4"/>
<text xml:space="preserve" text-anchor="middle" x="106.38" y="-151.9" font-family="Times New Roman,serif" font-size="18.00">FastAPI 0.110.0 deps</text>
<!-- fastapi -->
<g id="node1" class="node">
<title>fastapi</title>
<path fill="#e8f0fe" stroke="#5f6368" stroke-width="1.5" d="M43.75,-90C43.75,-90 12,-90 12,-90 6,-90 0,-84 0,-78 0,-78 0,-66 0,-66 0,-60 6,-54 12,-54 12,-54 43.75,-54 43.75,-54 49.75,-54 55.75,-60 55.75,-66 55.75,-66 55.75,-78 55.75,-78 55.75,-84 49.75,-90 43.75,-90"/>
<text xml:space="preserve" text-anchor="middle" x="27.88" y="-66.58" font-family="Arial" font-size="14.00">fastapi</text>
</g>
<!-- starlette -->
<g id="node2" class="node">
<title>starlette</title>
<path fill="#f8f9fb" stroke="#9aa0a6" d="M172.25,-144C172.25,-144 132.25,-144 132.25,-144 126.25,-144 120.25,-138 120.25,-132 120.25,-132 120.25,-120 120.25,-120 120.25,-114 126.25,-108 132.25,-108 132.25,-108 172.25,-108 172.25,-108 178.25,-108 184.25,-114 184.25,-120 184.25,-120 184.25,-132 184.25,-132 184.25,-138 178.25,-144 172.25,-144"/>
<text xml:space="preserve" text-anchor="middle" x="152.25" y="-120.58" font-family="Arial" font-size="14.00">starlette</text>
</g>
<!-- fastapi&#45;&gt;starlette -->
<g id="edge1" class="edge">
<title>fastapi&#45;&gt;starlette</title>
<path fill="none" stroke="#9aa0a6" d="M56.34,-84.12C72.13,-91.09 92.27,-99.97 109.93,-107.77"/>
<polygon fill="#9aa0a6" stroke="#9aa0a6" points="108.05,-110.76 118.61,-111.6 110.88,-104.36 108.05,-110.76"/>
</g>
<!-- pydantic -->
<g id="node3" class="node">
<title>pydantic</title>
<path fill="#f8f9fb" stroke="#9aa0a6" d="M173.38,-90C173.38,-90 131.12,-90 131.12,-90 125.12,-90 119.12,-84 119.12,-78 119.12,-78 119.12,-66 119.12,-66 119.12,-60 125.12,-54 131.12,-54 131.12,-54 173.38,-54 173.38,-54 179.38,-54 185.38,-60 185.38,-66 185.38,-66 185.38,-78 185.38,-78 185.38,-84 179.38,-90 173.38,-90"/>
<text xml:space="preserve" text-anchor="middle" x="152.25" y="-66.58" font-family="Arial" font-size="14.00">pydantic</text>
</g>
<!-- fastapi&#45;&gt;pydantic -->
<g id="edge2" class="edge">
<title>fastapi&#45;&gt;pydantic</title>
<path fill="none" stroke="#9aa0a6" d="M56.34,-72C71.34,-72 90.27,-72 107.28,-72"/>
<polygon fill="#9aa0a6" stroke="#9aa0a6" points="107.15,-75.5 117.15,-72 107.15,-68.5 107.15,-75.5"/>
</g>
<!-- typing&#45;extensions -->
<g id="node4" class="node">
<title>typing&#45;extensions</title>
<path fill="#f8f9fb" stroke="#9aa0a6" d="M200.75,-36C200.75,-36 103.75,-36 103.75,-36 97.75,-36 91.75,-30 91.75,-24 91.75,-24 91.75,-12 91.75,-12 91.75,-6 97.75,0 103.75,0 103.75,0 200.75,0 200.75,0 206.75,0 212.75,-6 212.75,-12 212.75,-12 212.75,-24 212.75,-24 212.75,-30 206.75,-36 200.75,-36"/>
<text xml:space="preserve" text-anchor="middle" x="152.25" y="-12.57" font-family="Arial" font-size="14.00">typing&#45;extensions</text>
</g>
<!-- fastapi&#45;&gt;typing&#45;extensions -->
<g id="edge3" class="edge">
<title>fastapi&#45;&gt;typing&#45;extensions</title>
<path fill="none" stroke="#9aa0a6" d="M56.34,-59.88C68.93,-54.33 84.29,-47.55 98.95,-41.08"/>
<polygon fill="#9aa0a6" stroke="#9aa0a6" points="100.33,-44.29 108.07,-37.05 97.51,-37.89 100.33,-44.29"/>
</g>
</g>
</svg>
